<svg id="visual" viewBox="0 0 1540 700" width="1540" height="700" xmlns="http://www.w3.org/2000/svg" xmlns:xlink="http://www.w3.org/1999/xlink" version="1.1"><rect x="0" y="0" width="1540" height="700" fill="#CCD0CF"></rect><path d="M0 523L11.7 515C23.3 507 46.7 491 70 495.8C93.3 500.7 116.7 526.3 140 540C163.3 553.7 186.7 555.3 210 556.3C233.3 557.3 256.7 557.7 280 544.7C303.3 531.7 326.7 505.3 350 506.3C373.3 507.3 396.7 535.7 420 545.8C443.3 556 466.7 548 490 548.2C513.3 548.3 536.7 556.7 560 557C583.3 557.3 606.7 549.7 630 546.3C653.3 543 676.7 544 700 546.5C723.3 549 746.7 553 770 556.8C793.3 560.7 816.7 564.3 840 565.5C863.3 566.7 886.7 565.3 910 560.7C933.3 556 956.7 548 980 540.5C1003.3 533 1026.7 526 1050 523.3C1073.3 520.7 1096.7 522.3 1120 517.2C1143.3 512 1166.7 500 1190 498.5C1213.3 497 1236.7 506 1260 506.7C1283.3 507.3 1306.7 499.7 1330 509.5C1353.3 519.3 1376.7 546.7 1400 558.5C1423.3 570.3 1446.7 566.7 1470 553.7C1493.3 540.7 1516.7 518.3 1528.3 507.2L1540 496L1540 701L1528.3 701C1516.7 701 1493.3 701 1470 701C1446.7 701 1423.3 701 1400 701C1376.7 701 1353.3 701 1330 701C1306.7 701 1283.3 701 1260 701C1236.7 701 1213.3 701 1190 701C1166.7 701 1143.3 701 1120 701C1096.7 701 1073.3 701 1050 701C1026.7 701 1003.3 701 980 701C956.7 701 933.3 701 910 701C886.7 701 863.3 701 840 701C816.7 701 793.3 701 770 701C746.7 701 723.3 701 700 701C676.7 701 653.3 701 630 701C606.7 701 583.3 701 560 701C536.7 701 513.3 701 490 701C466.7 701 443.3 701 420 701C396.7 701 373.3 701 350 701C326.7 701 303.3 701 280 701C256.7 701 233.3 701 210 701C186.7 701 163.3 701 140 701C116.7 701 93.3 701 70 701C46.7 701 23.3 701 11.7 701L0 701Z" fill="#06141B" stroke-linecap="round" stroke-linejoin="miter"></path></svg>